<svg class="main-svg" xmlns="http://www.w3.org/2000/svg" xmlns:xlink="http://www.w3.org/1999/xlink" width="700" height="1000" style="" viewBox="0 0 700 1000"><rect x="0" y="0" width="700" height="1000" style="fill: rgb(255, 255, 255); fill-opacity: 1;"/><defs id="defs-4051ce"><g class="clips"><clipPath id="clip4051cexyplot" class="plotclip"><rect width="540" height="174.25000000000003"/></clipPath><clipPath id="clip4051cex2y2plot" class="plotclip"><rect width="540" height="174.25000000000003"/></clipPath><clipPath id="clip4051cex3y3plot" class="plotclip"><rect width="540" height="174.24999999999997"/></clipPath><clipPath id="clip4051cex4y4plot" class="plotclip"><rect width="540" height="174.25"/></clipPath><clipPath class="axesclip" id="clip4051cex"><rect x="80" y="0" width="540" height="1000"/></clipPath><clipPath class="axesclip" id="clip4051cey"><rect x="0" y="100" width="700" height="174.25000000000003"/></clipPath><clipPath class="axesclip" id="clip4051cexy"><rect x="80" y="100" width="540" height="174.25000000000003"/></clipPath><clipPath class="axesclip" id="clip4051cey2"><rect x="0" y="315.25" width="700" height="174.25000000000003"/></clipPath><clipPath class="axesclip" id="clip4051cexy2"><rect x="80" y="315.25" width="540" height="174.25000000000003"/></clipPath><clipPath class="axesclip" id="clip4051cey3"><rect x="0" y="530.5" width="700" height="174.24999999999997"/></clipPath><clipPath class="axesclip" id="clip4051cexy3"><rect x="80" y="530.5" width="540" height="174.24999999999997"/></clipPath><clipPath class="axesclip" id="clip4051cey4"><rect x="0" y="745.75" width="700" height="174.25"/></clipPath><clipPath class="axesclip" id="clip4051cexy4"><rect x="80" y="745.75" width="540" height="174.25"/></clipPath><clipPath class="axesclip" id="clip4051cex2"><rect x="80" y="0" width="540" height="1000"/></clipPath><clipPath class="axesclip" id="clip4051cex2y"><rect x="80" y="100" width="540" height="174.25000000000003"/></clipPath><clipPath class="axesclip" id="clip4051cex2y2"><rect x="80" y="315.25" width="540" height="174.25000000000003"/></clipPath><clipPath class="axesclip" id="clip4051cex2y3"><rect x="80" y="530.5" width="540" height="174.24999999999997"/></clipPath><clipPath class="axesclip" id="clip4051cex2y4"><rect x="80" y="745.75" width="540" height="174.25"/></clipPath><clipPath class="axesclip" id="clip4051cex3"><rect x="80" y="0" width="540" height="1000"/></clipPath><clipPath class="axesclip" id="clip4051cex3y"><rect x="80" y="100" width="540" height="174.25000000000003"/></clipPath><clipPath class="axesclip" id="clip4051cex3y2"><rect x="80" y="315.25" width="540" height="174.25000000000003"/></clipPath><clipPath class="axesclip" id="clip4051cex3y3"><rect x="80" y="530.5" width="540" height="174.24999999999997"/></clipPath><clipPath class="axesclip" id="clip4051cex3y4"><rect x="80" y="745.75" width="540" height="174.25"/></clipPath><clipPath class="axesclip" id="clip4051cex4"><rect x="80" y="0" width="540" height="1000"/></clipPath><clipPath class="axesclip" id="clip4051cex4y"><rect x="80" y="100" width="540" height="174.25000000000003"/></clipPath><clipPath class="axesclip" id="clip4051cex4y2"><rect x="80" y="315.25" width="540" height="174.25000000000003"/></clipPath><clipPath class="axesclip" id="clip4051cex4y3"><rect x="80" y="530.5" width="540" height="174.24999999999997"/></clipPath><clipPath class="axesclip" id="clip4051cex4y4"><rect x="80" y="745.75" width="540" height="174.25"/></clipPath></g><g class="gradients"/></defs><g class="bglayer"><rect class="bg" x="80" y="100" width="540" height="174.25000000000003" style="fill: rgb(229, 236, 246); fill-opacity: 1; stroke-width: 0;"/><rect class="bg" x="80" y="315.25" width="540" height="174.25000000000003" style="fill: rgb(229, 236, 246); fill-opacity: 1; stroke-width: 0;"/><rect class="bg" x="80" y="530.5" width="540" height="174.24999999999997" style="fill: rgb(229, 236, 246); fill-opacity: 1; stroke-width: 0;"/><rect class="bg" x="80" y="745.75" width="540" height="174.25" style="fill: rgb(229, 236, 246); fill-opacity: 1; stroke-width: 0;"/></g><g class="layer-below"><g class="imagelayer"/><g class="shapelayer"/></g><g class="cartesianlayer"><g class="subplot xy"><g class="layer-subplot"><g class="shapelayer"/><g class="imagelayer"/></g><g class="gridlayer"><g class="x"><path class="xgrid crisp" transform="translate(170,0)" d="M0,100v174.25000000000003" style="stroke: rgb(255, 255, 255); stroke-opacity: 1; stroke-width: 1px;"/><path class="xgrid crisp" transform="translate(260,0)" d="M0,100v174.25000000000003" style="stroke: rgb(255, 255, 255); stroke-opacity: 1; stroke-width: 1px;"/><path class="xgrid crisp" transform="translate(350,0)" d="M0,100v174.25000000000003" style="stroke: rgb(255, 255, 255); stroke-opacity: 1; stroke-width: 1px;"/><path class="xgrid crisp" transform="translate(440,0)" d="M0,100v174.25000000000003" style="stroke: rgb(255, 255, 255); stroke-opacity: 1; stroke-width: 1px;"/><path class="xgrid crisp" transform="translate(530,0)" d="M0,100v174.25000000000003" style="stroke: rgb(255, 255, 255); stroke-opacity: 1; stroke-width: 1px;"/></g><g class="y"><path class="ygrid crisp" transform="translate(0,230.69)" d="M80,0h540" style="stroke: rgb(255, 255, 255); stroke-opacity: 1; stroke-width: 1px;"/><path class="ygrid crisp" transform="translate(0,143.56)" d="M80,0h540" style="stroke: rgb(255, 255, 255); stroke-opacity: 1; stroke-width: 1px;"/></g></g><g class="zerolinelayer"><path class="xzl zl crisp" transform="translate(80,0)" d="M0,100v174.25000000000003" style="stroke: rgb(255, 255, 255); stroke-opacity: 1; stroke-width: 2px;"/><path class="yzl zl crisp" transform="translate(0,187.13)" d="M80,0h540" style="stroke: rgb(255, 255, 255); stroke-opacity: 1; stroke-width: 2px;"/></g><path class="xlines-below"/><path class="ylines-below"/><g class="overlines-below"/><g class="xaxislayer-below"/><g class="yaxislayer-below"/><g class="overaxes-below"/><g class="plot" transform="translate(80,100)" clip-path="url('#clip4051cexyplot')"><g class="scatterlayer mlayer"><g class="trace scatter trace42d4f9" style="stroke-miterlimit: 2;"><g class="fills"><g><path class="js-fill" d="M540,87.13L0,87.13L0,87.13L540,87.13" style="fill: rgb(255, 0, 0); fill-opacity: 0.5; stroke-width: 0;"/></g></g><g class="errorbars"/><g class="lines"><path class="js-line" d="M0,87.13L540,87.13" style="vector-effect: non-scaling-stroke; fill: none; stroke: rgb(255, 0, 0); stroke-opacity: 1; stroke-width: 1px; opacity: 1;"/></g><g class="points"/><g class="text"/></g></g></g><g class="overplot"/><path class="xlines-above crisp" d="M0,0" style="fill: none;"/><path class="ylines-above crisp" d="M0,0" style="fill: none;"/><g class="overlines-above"/><g class="xaxislayer-above"/><g class="yaxislayer-above"><g class="ytick"><text text-anchor="end" x="79" y="4.199999999999999" transform="translate(0,274.25)" style="font-family: 'Open Sans', verdana, arial, sans-serif; font-size: 12px; fill: rgb(42, 63, 95); fill-opacity: 1; white-space: pre;">−1</text></g><g class="ytick"><text text-anchor="end" x="79" y="4.199999999999999" transform="translate(0,230.69)" style="font-family: 'Open Sans', verdana, arial, sans-serif; font-size: 12px; fill: rgb(42, 63, 95); fill-opacity: 1; white-space: pre;">−0.5</text></g><g class="ytick"><text text-anchor="end" x="79" y="4.199999999999999" transform="translate(0,187.13)" style="font-family: 'Open Sans', verdana, arial, sans-serif; font-size: 12px; fill: rgb(42, 63, 95); fill-opacity: 1; white-space: pre;">0</text></g><g class="ytick"><text text-anchor="end" x="79" y="4.199999999999999" transform="translate(0,143.56)" style="font-family: 'Open Sans', verdana, arial, sans-serif; font-size: 12px; fill: rgb(42, 63, 95); fill-opacity: 1; white-space: pre;">0.5</text></g><g class="ytick"><text text-anchor="end" x="79" y="4.199999999999999" transform="translate(0,100)" style="font-family: 'Open Sans', verdana, arial, sans-serif; font-size: 12px; fill: rgb(42, 63, 95); fill-opacity: 1; white-space: pre;">1</text></g></g><g class="overaxes-above"/></g><g class="subplot x2y2"><g class="layer-subplot"><g class="shapelayer"/><g class="imagelayer"/></g><g class="gridlayer"><g class="x2"><path class="x2grid crisp" transform="translate(170,0)" d="M0,315.25v174.25000000000003" style="stroke: rgb(255, 255, 255); stroke-opacity: 1; stroke-width: 1px;"/><path class="x2grid crisp" transform="translate(260,0)" d="M0,315.25v174.25000000000003" style="stroke: rgb(255, 255, 255); stroke-opacity: 1; stroke-width: 1px;"/><path class="x2grid crisp" transform="translate(350,0)" d="M0,315.25v174.25000000000003" style="stroke: rgb(255, 255, 255); stroke-opacity: 1; stroke-width: 1px;"/><path class="x2grid crisp" transform="translate(440,0)" d="M0,315.25v174.25000000000003" style="stroke: rgb(255, 255, 255); stroke-opacity: 1; stroke-width: 1px;"/><path class="x2grid crisp" transform="translate(530,0)" d="M0,315.25v174.25000000000003" style="stroke: rgb(255, 255, 255); stroke-opacity: 1; stroke-width: 1px;"/></g><g class="y2"><path class="y2grid crisp" transform="translate(0,485.33000000000004)" d="M80,0h540" style="stroke: rgb(255, 255, 255); stroke-opacity: 1; stroke-width: 1px;"/><path class="y2grid crisp" transform="translate(0,364.27)" d="M80,0h540" style="stroke: rgb(255, 255, 255); stroke-opacity: 1; stroke-width: 1px;"/></g></g><g class="zerolinelayer"><path class="x2zl zl crisp" transform="translate(80,0)" d="M0,315.25v174.25000000000003" style="stroke: rgb(255, 255, 255); stroke-opacity: 1; stroke-width: 2px;"/><path class="y2zl zl crisp" transform="translate(0,424.8)" d="M80,0h540" style="stroke: rgb(255, 255, 255); stroke-opacity: 1; stroke-width: 2px;"/></g><path class="xlines-below"/><path class="ylines-below"/><g class="overlines-below"/><g class="xaxislayer-below"/><g class="yaxislayer-below"/><g class="overaxes-below"/><g class="plot" transform="translate(80,315.25)" clip-path="url('#clip4051cex2y2plot')"><g class="scatterlayer mlayer"><g class="trace scatter trace36c090" style="stroke-miterlimit: 2;"><g class="fills"><g><path class="js-fill" d="M540,109.55L0,109.55L0,109.55L2.71,8.71L5.43,9.26L268.64,62.37L271.36,111.34L540,165.54" style="fill: rgb(0, 255, 255); fill-opacity: 0.5; stroke-width: 0;"/></g></g><g class="errorbars"/><g class="lines"><path class="js-line" d="M0,109.55L2.71,8.71L5.43,9.26L268.64,62.37L271.36,111.34L540,165.54" style="vector-effect: non-scaling-stroke; fill: none; stroke: rgb(0, 255, 255); stroke-opacity: 1; stroke-width: 1px; opacity: 1;"/></g><g class="points"/><g class="text"/></g></g></g><g class="overplot"/><path class="xlines-above crisp" d="M0,0" style="fill: none;"/><path class="ylines-above crisp" d="M0,0" style="fill: none;"/><g class="overlines-above"/><g class="xaxislayer-above"/><g class="yaxislayer-above"><g class="y2tick"><text text-anchor="end" x="79" y="4.199999999999999" transform="translate(0,485.33000000000004)" style="font-family: 'Open Sans', verdana, arial, sans-serif; font-size: 12px; fill: rgb(42, 63, 95); fill-opacity: 1; white-space: pre;">−10</text></g><g class="y2tick"><text text-anchor="end" x="79" y="4.199999999999999" transform="translate(0,424.8)" style="font-family: 'Open Sans', verdana, arial, sans-serif; font-size: 12px; fill: rgb(42, 63, 95); fill-opacity: 1; white-space: pre;">0</text></g><g class="y2tick"><text text-anchor="end" x="79" y="4.199999999999999" transform="translate(0,364.27)" style="font-family: 'Open Sans', verdana, arial, sans-serif; font-size: 12px; fill: rgb(42, 63, 95); fill-opacity: 1; white-space: pre;">10</text></g></g><g class="overaxes-above"/></g><g class="subplot x3y3"><g class="layer-subplot"><g class="shapelayer"/><g class="imagelayer"/></g><g class="gridlayer"><g class="x3"><path class="x3grid crisp" transform="translate(170,0)" d="M0,530.5v174.24999999999997" style="stroke: rgb(255, 255, 255); stroke-opacity: 1; stroke-width: 1px;"/><path class="x3grid crisp" transform="translate(260,0)" d="M0,530.5v174.24999999999997" style="stroke: rgb(255, 255, 255); stroke-opacity: 1; stroke-width: 1px;"/><path class="x3grid crisp" transform="translate(350,0)" d="M0,530.5v174.24999999999997" style="stroke: rgb(255, 255, 255); stroke-opacity: 1; stroke-width: 1px;"/><path class="x3grid crisp" transform="translate(440,0)" d="M0,530.5v174.24999999999997" style="stroke: rgb(255, 255, 255); stroke-opacity: 1; stroke-width: 1px;"/><path class="x3grid crisp" transform="translate(530,0)" d="M0,530.5v174.24999999999997" style="stroke: rgb(255, 255, 255); stroke-opacity: 1; stroke-width: 1px;"/></g><g class="y3"><path class="y3grid crisp" transform="translate(0,687.4)" d="M80,0h540" style="stroke: rgb(255, 255, 255); stroke-opacity: 1; stroke-width: 1px;"/><path class="y3grid crisp" transform="translate(0,644.13)" d="M80,0h540" style="stroke: rgb(255, 255, 255); stroke-opacity: 1; stroke-width: 1px;"/><path class="y3grid crisp" transform="translate(0,557.59)" d="M80,0h540" style="stroke: rgb(255, 255, 255); stroke-opacity: 1; stroke-width: 1px;"/></g></g><g class="zerolinelayer"><path class="x3zl zl crisp" transform="translate(80,0)" d="M0,530.5v174.24999999999997" style="stroke: rgb(255, 255, 255); stroke-opacity: 1; stroke-width: 2px;"/><path class="y3zl zl crisp" transform="translate(0,600.86)" d="M80,0h540" style="stroke: rgb(255, 255, 255); stroke-opacity: 1; stroke-width: 2px;"/></g><path class="xlines-below"/><path class="ylines-below"/><g class="overlines-below"/><g class="xaxislayer-below"/><g class="yaxislayer-below"/><g class="overaxes-below"/><g class="plot" transform="translate(80,530.5)" clip-path="url('#clip4051cex3y3plot')"><g class="scatterlayer mlayer"><g class="trace scatter tracefe2854" style="stroke-miterlimit: 2;"><g class="fills"><g><path class="js-fill" d="M540,70.36L0,70.36L0,70.36L2.71,165.54L5.43,163.37L37.99,138.28L40.7,136.26L75.98,111.15L78.69,109.31L113.97,86.34L116.68,84.66L151.96,63.84L154.67,62.32L189.95,43.66L192.66,42.3L225.23,26.98L227.94,25.78L260.5,12.31L263.22,11.26L271.36,8.71L274.07,8.76L303.92,10.02L306.63,10.21L336.48,13.04L339.2,13.36L369.05,17.75L371.76,18.22L401.61,24.16L404.32,24.77L434.17,32.27L436.88,33.02L466.73,42.07L469.45,42.97L499.3,53.58L502.01,54.62L531.86,66.79L534.57,67.97L540,70.36" style="fill: rgb(144, 238, 144); fill-opacity: 0.5; stroke-width: 0;"/></g></g><g class="errorbars"/><g class="lines"><path class="js-line" d="M0,70.36L2.71,165.54L5.43,163.37L37.99,138.28L40.7,136.26L75.98,111.15L78.69,109.31L113.97,86.34L116.68,84.66L151.96,63.84L154.67,62.32L189.95,43.66L192.66,42.3L225.23,26.98L227.94,25.78L260.5,12.31L263.22,11.26L271.36,8.71L274.07,8.76L303.92,10.02L306.63,10.21L336.48,13.04L339.2,13.36L369.05,17.75L371.76,18.22L401.61,24.16L404.32,24.77L434.17,32.27L436.88,33.02L466.73,42.07L469.45,42.97L499.3,53.58L502.01,54.62L531.86,66.79L534.57,67.97L540,70.36" style="vector-effect: non-scaling-stroke; fill: none; stroke: rgb(144, 238, 144); stroke-opacity: 1; stroke-width: 1px; opacity: 1;"/></g><g class="points"/><g class="text"/></g></g></g><g class="overplot"/><path class="xlines-above crisp" d="M0,0" style="fill: none;"/><path class="ylines-above crisp" d="M0,0" style="fill: none;"/><g class="overlines-above"/><g class="xaxislayer-above"/><g class="yaxislayer-above"><g class="y3tick"><text text-anchor="end" x="79" y="4.199999999999999" transform="translate(0,687.4)" style="font-family: 'Open Sans', verdana, arial, sans-serif; font-size: 12px; fill: rgb(42, 63, 95); fill-opacity: 1; white-space: pre;">−10</text></g><g class="y3tick"><text text-anchor="end" x="79" y="4.199999999999999" transform="translate(0,644.13)" style="font-family: 'Open Sans', verdana, arial, sans-serif; font-size: 12px; fill: rgb(42, 63, 95); fill-opacity: 1; white-space: pre;">−5</text></g><g class="y3tick"><text text-anchor="end" x="79" y="4.199999999999999" transform="translate(0,600.86)" style="font-family: 'Open Sans', verdana, arial, sans-serif; font-size: 12px; fill: rgb(42, 63, 95); fill-opacity: 1; white-space: pre;">0</text></g><g class="y3tick"><text text-anchor="end" x="79" y="4.199999999999999" transform="translate(0,557.59)" style="font-family: 'Open Sans', verdana, arial, sans-serif; font-size: 12px; fill: rgb(42, 63, 95); fill-opacity: 1; white-space: pre;">5</text></g></g><g class="overaxes-above"/></g><g class="subplot x4y4"><g class="layer-subplot"><g class="shapelayer"/><g class="imagelayer"/></g><g class="gridlayer"><g class="x4"><path class="x4grid crisp" transform="translate(170,0)" d="M0,745.75v174.25" style="stroke: rgb(255, 255, 255); stroke-opacity: 1; stroke-width: 1px;"/><path class="x4grid crisp" transform="translate(260,0)" d="M0,745.75v174.25" style="stroke: rgb(255, 255, 255); stroke-opacity: 1; stroke-width: 1px;"/><path class="x4grid crisp" transform="translate(350,0)" d="M0,745.75v174.25" style="stroke: rgb(255, 255, 255); stroke-opacity: 1; stroke-width: 1px;"/><path class="x4grid crisp" transform="translate(440,0)" d="M0,745.75v174.25" style="stroke: rgb(255, 255, 255); stroke-opacity: 1; stroke-width: 1px;"/><path class="x4grid crisp" transform="translate(530,0)" d="M0,745.75v174.25" style="stroke: rgb(255, 255, 255); stroke-opacity: 1; stroke-width: 1px;"/></g><g class="y4"><path class="y4grid crisp" transform="translate(0,874.91)" d="M80,0h540" style="stroke: rgb(255, 255, 255); stroke-opacity: 1; stroke-width: 1px;"/><path class="y4grid crisp" transform="translate(0,810.33)" d="M80,0h540" style="stroke: rgb(255, 255, 255); stroke-opacity: 1; stroke-width: 1px;"/></g></g><g class="zerolinelayer"><path class="x4zl zl crisp" transform="translate(80,0)" d="M0,745.75v174.25" style="stroke: rgb(255, 255, 255); stroke-opacity: 1; stroke-width: 2px;"/><path class="y4zl zl crisp" transform="translate(0,745.75)" d="M80,0h540" style="stroke: rgb(255, 255, 255); stroke-opacity: 1; stroke-width: 2px;"/></g><path class="xlines-below"/><path class="ylines-below"/><g class="overlines-below"/><g class="xaxislayer-below"/><g class="yaxislayer-below"/><g class="overaxes-below"/><g class="plot" transform="translate(80,745.75)" clip-path="url('#clip4051cex4y4plot')"><g class="scatterlayer mlayer"><g class="trace scatter trace9b3774" style="stroke-miterlimit: 2;"><g class="fills"><g><path class="js-fill" d="M540,0L0,0L0,0L10.85,0.71L13.57,1.1L24.42,3.45L27.14,4.22L40.7,9.13L43.42,10.31L56.98,17.04L59.7,18.55L75.98,28.55L78.69,30.36L100.4,46.02L103.12,48.1L135.68,74.25L138.39,76.49L184.52,113.46L187.24,115.5L208.94,130.84L211.66,132.61L230.65,144.02L233.37,145.49L249.65,153.33L252.36,154.47L265.93,159.36L268.64,160.18L282.21,163.38L284.92,163.85L298.49,165.33L301.21,165.46L314.77,165.24L317.49,165.02L331.06,163.13L333.77,162.59L347.34,159.08L350.05,158.22L366.33,151.97L369.05,150.75L385.33,142.43L388.04,140.87L404.32,130.61L407.04,128.74L426.03,114.55L428.74,112.37L447.74,96.08L450.45,93.62L472.16,72.88L474.87,70.16L502.01,41.86L504.72,38.93L540,0" style="fill: rgb(0, 0, 255); fill-opacity: 0.5; stroke-width: 0;"/></g></g><g class="errorbars"/><g class="lines"><path class="js-line" d="M0,0L10.85,0.71L13.57,1.1L24.42,3.45L27.14,4.22L40.7,9.13L43.42,10.31L56.98,17.04L59.7,18.55L75.98,28.55L78.69,30.36L100.4,46.02L103.12,48.1L135.68,74.25L138.39,76.49L184.52,113.46L187.24,115.5L208.94,130.84L211.66,132.61L230.65,144.02L233.37,145.49L249.65,153.33L252.36,154.47L265.93,159.36L268.64,160.18L282.21,163.38L284.92,163.85L298.49,165.33L301.21,165.46L314.77,165.24L317.49,165.02L331.06,163.13L333.77,162.59L347.34,159.08L350.05,158.22L366.33,151.97L369.05,150.75L385.33,142.43L388.04,140.87L404.32,130.61L407.04,128.74L426.03,114.55L428.74,112.37L447.74,96.08L450.45,93.62L472.16,72.88L474.87,70.16L502.01,41.86L504.72,38.93L540,0" style="vector-effect: non-scaling-stroke; fill: none; stroke: rgb(0, 0, 255); stroke-opacity: 1; stroke-width: 1px; opacity: 1;"/></g><g class="points"/><g class="text"/></g></g></g><g class="overplot"/><path class="xlines-above crisp" d="M0,0" style="fill: none;"/><path class="ylines-above crisp" d="M0,0" style="fill: none;"/><g class="overlines-above"/><g class="xaxislayer-above"><g class="x4tick"><text text-anchor="middle" x="0" y="933" transform="translate(80,0)" style="font-family: 'Open Sans', verdana, arial, sans-serif; font-size: 12px; fill: rgb(42, 63, 95); fill-opacity: 1; white-space: pre;">0</text></g><g class="x4tick"><text text-anchor="middle" x="0" y="933" transform="translate(170,0)" style="font-family: 'Open Sans', verdana, arial, sans-serif; font-size: 12px; fill: rgb(42, 63, 95); fill-opacity: 1; white-space: pre;">0.5</text></g><g class="x4tick"><text text-anchor="middle" x="0" y="933" transform="translate(260,0)" style="font-family: 'Open Sans', verdana, arial, sans-serif; font-size: 12px; fill: rgb(42, 63, 95); fill-opacity: 1; white-space: pre;">1</text></g><g class="x4tick"><text text-anchor="middle" x="0" y="933" transform="translate(350,0)" style="font-family: 'Open Sans', verdana, arial, sans-serif; font-size: 12px; fill: rgb(42, 63, 95); fill-opacity: 1; white-space: pre;">1.5</text></g><g class="x4tick"><text text-anchor="middle" x="0" y="933" transform="translate(440,0)" style="font-family: 'Open Sans', verdana, arial, sans-serif; font-size: 12px; fill: rgb(42, 63, 95); fill-opacity: 1; white-space: pre;">2</text></g><g class="x4tick"><text text-anchor="middle" x="0" y="933" transform="translate(530,0)" style="font-family: 'Open Sans', verdana, arial, sans-serif; font-size: 12px; fill: rgb(42, 63, 95); fill-opacity: 1; white-space: pre;">2.5</text></g><g class="x4tick"><text text-anchor="middle" x="0" y="933" transform="translate(620,0)" style="font-family: 'Open Sans', verdana, arial, sans-serif; font-size: 12px; fill: rgb(42, 63, 95); fill-opacity: 1; white-space: pre;">3</text></g></g><g class="yaxislayer-above"><g class="y4tick"><text text-anchor="end" x="79" y="4.199999999999999" transform="translate(0,874.91)" style="font-family: 'Open Sans', verdana, arial, sans-serif; font-size: 12px; fill: rgb(42, 63, 95); fill-opacity: 1; white-space: pre;">−2</text></g><g class="y4tick"><text text-anchor="end" x="79" y="4.199999999999999" transform="translate(0,810.33)" style="font-family: 'Open Sans', verdana, arial, sans-serif; font-size: 12px; fill: rgb(42, 63, 95); fill-opacity: 1; white-space: pre;">−1</text></g><g class="y4tick"><text text-anchor="end" x="79" y="4.199999999999999" transform="translate(0,745.75)" style="font-family: 'Open Sans', verdana, arial, sans-serif; font-size: 12px; fill: rgb(42, 63, 95); fill-opacity: 1; white-space: pre;">0</text></g></g><g class="overaxes-above"/></g></g><g class="polarlayer"/><g class="ternarylayer"/><g class="geolayer"/><g class="funnelarealayer"/><g class="pielayer"/><g class="treemaplayer"/><g class="sunburstlayer"/><g class="glimages"/><defs id="topdefs-4051ce"><g class="clips"/></defs><g class="layer-above"><g class="imagelayer"/><g class="shapelayer"/></g><g class="infolayer"><g class="g-gtitle"><text class="gtitle" x="350" y="50" text-anchor="middle" dy="0em" style="font-family: 'Open Sans', verdana, arial, sans-serif; font-size: 24px; fill: rgb(42, 63, 95); opacity: 1; font-weight: normal; white-space: pre;">Analysis Results</text></g><g class="g-xtitle"/><g class="g-x2title"/><g class="g-x3title"/><g class="g-x4title"><text class="x4title" x="350" y="961.8" text-anchor="middle" style="font-family: 'Open Sans', verdana, arial, sans-serif; font-size: 14px; fill: rgb(42, 63, 95); opacity: 1; font-weight: normal; white-space: pre;">Beam Length (m)</text></g><g class="g-ytitle"><text class="ytitle" transform="rotate(-90,30.418750000000003,187.125)" x="30.418750000000003" y="187.125" text-anchor="middle" style="font-family: 'Open Sans', verdana, arial, sans-serif; font-size: 14px; fill: rgb(42, 63, 95); opacity: 1; font-weight: normal; white-space: pre;">Normal Force (kN)</text></g><g class="g-y2title"><text class="y2title" transform="rotate(-90,33.60625,402.375)" x="33.60625" y="402.375" text-anchor="middle" style="font-family: 'Open Sans', verdana, arial, sans-serif; font-size: 14px; fill: rgb(42, 63, 95); opacity: 1; font-weight: normal; white-space: pre;">Shear Force (kN)</text></g><g class="g-y3title"><text class="y3title" transform="rotate(-90,33.60625,617.625)" x="33.60625" y="617.625" text-anchor="middle" style="font-family: 'Open Sans', verdana, arial, sans-serif; font-size: 14px; fill: rgb(42, 63, 95); opacity: 1; font-weight: normal; white-space: pre;">Bending Moment (kN.m)</text></g><g class="g-y4title"><text class="y4title" transform="rotate(-90,40.465625,832.875)" x="40.465625" y="832.875" text-anchor="middle" style="font-family: 'Open Sans', verdana, arial, sans-serif; font-size: 14px; fill: rgb(42, 63, 95); opacity: 1; font-weight: normal; white-space: pre;">Deflection (mm)</text></g><g class="annotation" data-index="0" style="opacity: 1;"><g class="annotation-text-g" transform="rotate(0,350,87)"><g class="cursor-pointer" transform="translate(264,74)"><rect class="bg" x="0.5" y="0.5" width="172" height="25" style="stroke-width: 1px; stroke: rgb(0, 0, 0); stroke-opacity: 0; fill: rgb(0, 0, 0); fill-opacity: 0;"/><text class="annotation-text" text-anchor="middle" x="86.578125" y="19" style="font-family: 'Open Sans', verdana, arial, sans-serif; font-size: 16px; fill: rgb(42, 63, 95); fill-opacity: 1; white-space: pre;">Normal Force Diagram</text></g></g></g><g class="annotation" data-index="1" style="opacity: 1;"><g class="annotation-text-g" transform="rotate(0,350,302.25)"><g class="cursor-pointer" transform="translate(270,289)"><rect class="bg" x="0.5" y="0.5" width="159" height="25" style="stroke-width: 1px; stroke: rgb(0, 0, 0); stroke-opacity: 0; fill: rgb(0, 0, 0); fill-opacity: 0;"/><text class="annotation-text" text-anchor="middle" x="80.03125" y="19" style="font-family: 'Open Sans', verdana, arial, sans-serif; font-size: 16px; fill: rgb(42, 63, 95); fill-opacity: 1; white-space: pre;">Shear Force Diagram</text></g></g></g><g class="annotation" data-index="2" style="opacity: 1;"><g class="annotation-text-g" transform="rotate(0,350,517.5)"><g class="cursor-pointer" transform="translate(250,505)"><rect class="bg" x="0.5" y="0.5" width="200" height="25" style="stroke-width: 1px; stroke: rgb(0, 0, 0); stroke-opacity: 0; fill: rgb(0, 0, 0); fill-opacity: 0;"/><text class="annotation-text" text-anchor="middle" x="100.53125" y="19" style="font-family: 'Open Sans', verdana, arial, sans-serif; font-size: 16px; fill: rgb(42, 63, 95); fill-opacity: 1; white-space: pre;">Bending Moment Diagram</text></g></g></g><g class="annotation" data-index="3" style="opacity: 1;"><g class="annotation-text-g" transform="rotate(0,350,732.75)"><g class="cursor-pointer" transform="translate(276,720)"><rect class="bg" x="0.5" y="0.5" width="147" height="25" style="stroke-width: 1px; stroke: rgb(0, 0, 0); stroke-opacity: 0; fill: rgb(0, 0, 0); fill-opacity: 0;"/><text class="annotation-text" text-anchor="middle" x="73.875" y="19" style="font-family: 'Open Sans', verdana, arial, sans-serif; font-size: 16px; fill: rgb(42, 63, 95); fill-opacity: 1; white-space: pre;">Deflection Diagram</text></g></g></g></g></svg>