<svg class="main-svg" xmlns="http://www.w3.org/2000/svg" xmlns:xlink="http://www.w3.org/1999/xlink" width="600" height="1000" style="" viewBox="0 0 600 1000"><rect x="0" y="0" width="600" height="1000" style="fill: rgb(255, 255, 255); fill-opacity: 1;"/><defs id="defs-cb9de4"><g class="clips"><clipPath id="clipcb9de4xyplot" class="plotclip"><rect width="440" height="174.25000000000003"/></clipPath><clipPath id="clipcb9de4x2y2plot" class="plotclip"><rect width="440" height="174.25000000000003"/></clipPath><clipPath id="clipcb9de4x3y3plot" class="plotclip"><rect width="440" height="174.24999999999997"/></clipPath><clipPath id="clipcb9de4x4y4plot" class="plotclip"><rect width="440" height="174.25"/></clipPath><clipPath class="axesclip" id="clipcb9de4x"><rect x="80" y="0" width="440" height="1000"/></clipPath><clipPath class="axesclip" id="clipcb9de4y"><rect x="0" y="100" width="600" height="174.25000000000003"/></clipPath><clipPath class="axesclip" id="clipcb9de4xy"><rect x="80" y="100" width="440" height="174.25000000000003"/></clipPath><clipPath class="axesclip" id="clipcb9de4y2"><rect x="0" y="315.25" width="600" height="174.25000000000003"/></clipPath><clipPath class="axesclip" id="clipcb9de4xy2"><rect x="80" y="315.25" width="440" height="174.25000000000003"/></clipPath><clipPath class="axesclip" id="clipcb9de4y3"><rect x="0" y="530.5" width="600" height="174.24999999999997"/></clipPath><clipPath class="axesclip" id="clipcb9de4xy3"><rect x="80" y="530.5" width="440" height="174.24999999999997"/></clipPath><clipPath class="axesclip" id="clipcb9de4y4"><rect x="0" y="745.75" width="600" height="174.25"/></clipPath><clipPath class="axesclip" id="clipcb9de4xy4"><rect x="80" y="745.75" width="440" height="174.25"/></clipPath><clipPath class="axesclip" id="clipcb9de4x2"><rect x="80" y="0" width="440" height="1000"/></clipPath><clipPath class="axesclip" id="clipcb9de4x2y"><rect x="80" y="100" width="440" height="174.25000000000003"/></clipPath><clipPath class="axesclip" id="clipcb9de4x2y2"><rect x="80" y="315.25" width="440" height="174.25000000000003"/></clipPath><clipPath class="axesclip" id="clipcb9de4x2y3"><rect x="80" y="530.5" width="440" height="174.24999999999997"/></clipPath><clipPath class="axesclip" id="clipcb9de4x2y4"><rect x="80" y="745.75" width="440" height="174.25"/></clipPath><clipPath class="axesclip" id="clipcb9de4x3"><rect x="80" y="0" width="440" height="1000"/></clipPath><clipPath class="axesclip" id="clipcb9de4x3y"><rect x="80" y="100" width="440" height="174.25000000000003"/></clipPath><clipPath class="axesclip" id="clipcb9de4x3y2"><rect x="80" y="315.25" width="440" height="174.25000000000003"/></clipPath><clipPath class="axesclip" id="clipcb9de4x3y3"><rect x="80" y="530.5" width="440" height="174.24999999999997"/></clipPath><clipPath class="axesclip" id="clipcb9de4x3y4"><rect x="80" y="745.75" width="440" height="174.25"/></clipPath><clipPath class="axesclip" id="clipcb9de4x4"><rect x="80" y="0" width="440" height="1000"/></clipPath><clipPath class="axesclip" id="clipcb9de4x4y"><rect x="80" y="100" width="440" height="174.25000000000003"/></clipPath><clipPath class="axesclip" id="clipcb9de4x4y2"><rect x="80" y="315.25" width="440" height="174.25000000000003"/></clipPath><clipPath class="axesclip" id="clipcb9de4x4y3"><rect x="80" y="530.5" width="440" height="174.24999999999997"/></clipPath><clipPath class="axesclip" id="clipcb9de4x4y4"><rect x="80" y="745.75" width="440" height="174.25"/></clipPath></g><g class="gradients"/></defs><g class="bglayer"><rect class="bg" x="80" y="100" width="440" height="174.25000000000003" style="fill: rgb(229, 236, 246); fill-opacity: 1; stroke-width: 0;"/><rect class="bg" x="80" y="315.25" width="440" height="174.25000000000003" style="fill: rgb(229, 236, 246); fill-opacity: 1; stroke-width: 0;"/><rect class="bg" x="80" y="530.5" width="440" height="174.24999999999997" style="fill: rgb(229, 236, 246); fill-opacity: 1; stroke-width: 0;"/><rect class="bg" x="80" y="745.75" width="440" height="174.25" style="fill: rgb(229, 236, 246); fill-opacity: 1; stroke-width: 0;"/></g><g class="layer-below"><g class="imagelayer"/><g class="shapelayer"/></g><g class="cartesianlayer"><g class="subplot xy"><g class="layer-subplot"><g class="shapelayer"/><g class="imagelayer"/></g><g class="gridlayer"><g class="x"><path class="xgrid crisp" transform="translate(205.70999999999998,0)" d="M0,100v174.25000000000003" style="stroke: rgb(255, 255, 255); stroke-opacity: 1; stroke-width: 1px;"/><path class="xgrid crisp" transform="translate(331.43,0)" d="M0,100v174.25000000000003" style="stroke: rgb(255, 255, 255); stroke-opacity: 1; stroke-width: 1px;"/><path class="xgrid crisp" transform="translate(457.14,0)" d="M0,100v174.25000000000003" style="stroke: rgb(255, 255, 255); stroke-opacity: 1; stroke-width: 1px;"/></g><g class="y"><path class="ygrid crisp" transform="translate(0,230.69)" d="M80,0h440" style="stroke: rgb(255, 255, 255); stroke-opacity: 1; stroke-width: 1px;"/><path class="ygrid crisp" transform="translate(0,143.56)" d="M80,0h440" style="stroke: rgb(255, 255, 255); stroke-opacity: 1; stroke-width: 1px;"/></g></g><g class="zerolinelayer"><path class="xzl zl crisp" transform="translate(80,0)" d="M0,100v174.25000000000003" style="stroke: rgb(255, 255, 255); stroke-opacity: 1; stroke-width: 2px;"/><path class="yzl zl crisp" transform="translate(0,187.13)" d="M80,0h440" style="stroke: rgb(255, 255, 255); stroke-opacity: 1; stroke-width: 2px;"/></g><path class="xlines-below"/><path class="ylines-below"/><g class="overlines-below"/><g class="xaxislayer-below"/><g class="yaxislayer-below"/><g class="overaxes-below"/><g class="plot" transform="translate(80,100)" clip-path="url('#clipcb9de4xyplot')"><g class="scatterlayer mlayer"><g class="trace scatter tracee99d45" style="stroke-miterlimit: 2;"><g class="fills"><g><path class="js-fill" d="M440,87.13L0,87.13L0,87.13L440,87.13L440,87.13" style="fill: rgb(255, 0, 0); fill-opacity: 0.5; stroke-width: 0;"/></g></g><g class="errorbars"/><g class="lines"><path class="js-line" d="M0,87.13L440,87.13L440,87.13" style="vector-effect: non-scaling-stroke; fill: none; stroke: rgb(255, 0, 0); stroke-opacity: 1; stroke-width: 1px; opacity: 1;"/></g><g class="points"/><g class="text"/></g></g></g><g class="overplot"/><path class="xlines-above crisp" d="M0,0" style="fill: none;"/><path class="ylines-above crisp" d="M0,0" style="fill: none;"/><g class="overlines-above"/><g class="xaxislayer-above"/><g class="yaxislayer-above"><g class="ytick"><text text-anchor="end" x="79" y="4.199999999999999" transform="translate(0,274.25)" style="font-family: 'Open Sans', verdana, arial, sans-serif; font-size: 12px; fill: rgb(42, 63, 95); fill-opacity: 1; white-space: pre;">−1</text></g><g class="ytick"><text text-anchor="end" x="79" y="4.199999999999999" transform="translate(0,230.69)" style="font-family: 'Open Sans', verdana, arial, sans-serif; font-size: 12px; fill: rgb(42, 63, 95); fill-opacity: 1; white-space: pre;">−0.5</text></g><g class="ytick"><text text-anchor="end" x="79" y="4.199999999999999" transform="translate(0,187.13)" style="font-family: 'Open Sans', verdana, arial, sans-serif; font-size: 12px; fill: rgb(42, 63, 95); fill-opacity: 1; white-space: pre;">0</text></g><g class="ytick"><text text-anchor="end" x="79" y="4.199999999999999" transform="translate(0,143.56)" style="font-family: 'Open Sans', verdana, arial, sans-serif; font-size: 12px; fill: rgb(42, 63, 95); fill-opacity: 1; white-space: pre;">0.5</text></g><g class="ytick"><text text-anchor="end" x="79" y="4.199999999999999" transform="translate(0,100)" style="font-family: 'Open Sans', verdana, arial, sans-serif; font-size: 12px; fill: rgb(42, 63, 95); fill-opacity: 1; white-space: pre;">1</text></g></g><g class="overaxes-above"/></g><g class="subplot x2y2"><g class="layer-subplot"><g class="shapelayer"/><g class="imagelayer"/></g><g class="gridlayer"><g class="x2"><path class="x2grid crisp" transform="translate(205.70999999999998,0)" d="M0,315.25v174.25000000000003" style="stroke: rgb(255, 255, 255); stroke-opacity: 1; stroke-width: 1px;"/><path class="x2grid crisp" transform="translate(331.43,0)" d="M0,315.25v174.25000000000003" style="stroke: rgb(255, 255, 255); stroke-opacity: 1; stroke-width: 1px;"/><path class="x2grid crisp" transform="translate(457.14,0)" d="M0,315.25v174.25000000000003" style="stroke: rgb(255, 255, 255); stroke-opacity: 1; stroke-width: 1px;"/></g><g class="y2"><path class="y2grid crisp" transform="translate(0,475.24)" d="M80,0h440" style="stroke: rgb(255, 255, 255); stroke-opacity: 1; stroke-width: 1px;"/><path class="y2grid crisp" transform="translate(0,347.57)" d="M80,0h440" style="stroke: rgb(255, 255, 255); stroke-opacity: 1; stroke-width: 1px;"/></g></g><g class="zerolinelayer"><path class="x2zl zl crisp" transform="translate(80,0)" d="M0,315.25v174.25000000000003" style="stroke: rgb(255, 255, 255); stroke-opacity: 1; stroke-width: 2px;"/><path class="y2zl zl crisp" transform="translate(0,411.40999999999997)" d="M80,0h440" style="stroke: rgb(255, 255, 255); stroke-opacity: 1; stroke-width: 2px;"/></g><path class="xlines-below"/><path class="ylines-below"/><g class="overlines-below"/><g class="xaxislayer-below"/><g class="yaxislayer-below"/><g class="overaxes-below"/><g class="plot" transform="translate(80,315.25)" clip-path="url('#clipcb9de4x2y2plot')"><g class="scatterlayer mlayer"><g class="trace scatter trace3a9bad" style="stroke-miterlimit: 2;"><g class="fills"><g><path class="js-fill" d="M440,96.16L0,96.16L0,96.16L0,149.15L2.21,148.25L125.71,98.08L125.71,85.31L314.29,8.71L314.29,165.54L440,114.47L440,114.47" style="fill: rgb(0, 255, 255); fill-opacity: 0.5; stroke-width: 0;"/></g></g><g class="errorbars"/><g class="lines"><path class="js-line" d="M0,96.16L0,149.15L2.21,148.25L125.71,98.08L125.71,85.31L314.29,8.71L314.29,165.54L440,114.47L440,114.47" style="vector-effect: non-scaling-stroke; fill: none; stroke: rgb(0, 255, 255); stroke-opacity: 1; stroke-width: 1px; opacity: 1;"/></g><g class="points"/><g class="text"/></g></g></g><g class="overplot"/><path class="xlines-above crisp" d="M0,0" style="fill: none;"/><path class="ylines-above crisp" d="M0,0" style="fill: none;"/><g class="overlines-above"/><g class="xaxislayer-above"/><g class="yaxislayer-above"><g class="y2tick"><text text-anchor="end" x="79" y="4.199999999999999" transform="translate(0,475.24)" style="font-family: 'Open Sans', verdana, arial, sans-serif; font-size: 12px; fill: rgb(42, 63, 95); fill-opacity: 1; white-space: pre;">−5</text></g><g class="y2tick"><text text-anchor="end" x="79" y="4.199999999999999" transform="translate(0,411.40999999999997)" style="font-family: 'Open Sans', verdana, arial, sans-serif; font-size: 12px; fill: rgb(42, 63, 95); fill-opacity: 1; white-space: pre;">0</text></g><g class="y2tick"><text text-anchor="end" x="79" y="4.199999999999999" transform="translate(0,347.57)" style="font-family: 'Open Sans', verdana, arial, sans-serif; font-size: 12px; fill: rgb(42, 63, 95); fill-opacity: 1; white-space: pre;">5</text></g></g><g class="overaxes-above"/></g><g class="subplot x3y3"><g class="layer-subplot"><g class="shapelayer"/><g class="imagelayer"/></g><g class="gridlayer"><g class="x3"><path class="x3grid crisp" transform="translate(205.70999999999998,0)" d="M0,530.5v174.24999999999997" style="stroke: rgb(255, 255, 255); stroke-opacity: 1; stroke-width: 1px;"/><path class="x3grid crisp" transform="translate(331.43,0)" d="M0,530.5v174.24999999999997" style="stroke: rgb(255, 255, 255); stroke-opacity: 1; stroke-width: 1px;"/><path class="x3grid crisp" transform="translate(457.14,0)" d="M0,530.5v174.24999999999997" style="stroke: rgb(255, 255, 255); stroke-opacity: 1; stroke-width: 1px;"/></g><g class="y3"><path class="y3grid crisp" transform="translate(0,691.08)" d="M80,0h440" style="stroke: rgb(255, 255, 255); stroke-opacity: 1; stroke-width: 1px;"/><path class="y3grid crisp" transform="translate(0,658.23)" d="M80,0h440" style="stroke: rgb(255, 255, 255); stroke-opacity: 1; stroke-width: 1px;"/><path class="y3grid crisp" transform="translate(0,592.53)" d="M80,0h440" style="stroke: rgb(255, 255, 255); stroke-opacity: 1; stroke-width: 1px;"/><path class="y3grid crisp" transform="translate(0,559.68)" d="M80,0h440" style="stroke: rgb(255, 255, 255); stroke-opacity: 1; stroke-width: 1px;"/></g></g><g class="zerolinelayer"><path class="x3zl zl crisp" transform="translate(80,0)" d="M0,530.5v174.24999999999997" style="stroke: rgb(255, 255, 255); stroke-opacity: 1; stroke-width: 2px;"/><path class="y3zl zl crisp" transform="translate(0,625.38)" d="M80,0h440" style="stroke: rgb(255, 255, 255); stroke-opacity: 1; stroke-width: 2px;"/></g><path class="xlines-below"/><path class="ylines-below"/><g class="overlines-below"/><g class="xaxislayer-below"/><g class="yaxislayer-below"/><g class="overaxes-below"/><g class="plot" transform="translate(80,530.5)" clip-path="url('#clipcb9de4x3y3plot')"><g class="scatterlayer mlayer"><g class="trace scatter trace6616f4" style="stroke-miterlimit: 2;"><g class="fills"><g><path class="js-fill" d="M440,94.88L0,94.88L0,94.88L15.48,110.67L17.69,112.77L33.17,126.28L35.38,128.05L50.85,139.29L53.07,140.73L66.33,148.54L68.54,149.7L84.02,156.67L86.23,157.5L99.5,161.65L101.71,162.2L114.97,164.63L117.19,164.9L126.03,165.47L128.24,164.95L141.51,161L143.72,160.19L156.98,154.53L159.2,153.45L174.67,144.71L176.88,143.3L190.15,133.98L192.36,132.28L207.84,119.27L210.05,117.25L220,107.66L220,140.51L234.37,125.19L236.58,122.68L252.06,103.99L254.27,101.15L271.96,77.02L274.17,73.82L291.86,46.76L294.07,43.19L311.76,13.21L313.97,9.28L314.29,8.71L316.18,11.39L333.87,34.93L336.08,37.69L353.77,58.3L355.98,60.7L371.46,76.32L373.67,78.38L389.15,91.73L391.36,93.47L406.83,104.54L409.05,105.95L424.52,114.74L426.73,115.84L440,121.54L440,121.54" style="fill: rgb(144, 238, 144); fill-opacity: 0.5; stroke-width: 0;"/></g></g><g class="errorbars"/><g class="lines"><path class="js-line" d="M0,94.88L15.48,110.67L17.69,112.77L33.17,126.28L35.38,128.05L50.85,139.29L53.07,140.73L66.33,148.54L68.54,149.7L84.02,156.67L86.23,157.5L99.5,161.65L101.71,162.2L114.97,164.63L117.19,164.9L126.03,165.47L128.24,164.95L141.51,161L143.72,160.19L156.98,154.53L159.2,153.45L174.67,144.71L176.88,143.3L190.15,133.98L192.36,132.28L207.84,119.27L210.05,117.25L220,107.66L220,140.51L234.37,125.19L236.58,122.68L252.06,103.99L254.27,101.15L271.96,77.02L274.17,73.82L291.86,46.76L294.07,43.19L311.76,13.21L313.97,9.28L314.29,8.71L316.18,11.39L333.87,34.93L336.08,37.69L353.77,58.3L355.98,60.7L371.46,76.32L373.67,78.38L389.15,91.73L391.36,93.47L406.83,104.54L409.05,105.95L424.52,114.74L426.73,115.84L440,121.54L440,121.54" style="vector-effect: non-scaling-stroke; fill: none; stroke: rgb(144, 238, 144); stroke-opacity: 1; stroke-width: 1px; opacity: 1;"/></g><g class="points"/><g class="text"/></g></g></g><g class="overplot"/><path class="xlines-above crisp" d="M0,0" style="fill: none;"/><path class="ylines-above crisp" d="M0,0" style="fill: none;"/><g class="overlines-above"/><g class="xaxislayer-above"/><g class="yaxislayer-above"><g class="y3tick"><text text-anchor="end" x="79" y="4.199999999999999" transform="translate(0,691.08)" style="font-family: 'Open Sans', verdana, arial, sans-serif; font-size: 12px; fill: rgb(42, 63, 95); fill-opacity: 1; white-space: pre;">−4</text></g><g class="y3tick"><text text-anchor="end" x="79" y="4.199999999999999" transform="translate(0,658.23)" style="font-family: 'Open Sans', verdana, arial, sans-serif; font-size: 12px; fill: rgb(42, 63, 95); fill-opacity: 1; white-space: pre;">−2</text></g><g class="y3tick"><text text-anchor="end" x="79" y="4.199999999999999" transform="translate(0,625.38)" style="font-family: 'Open Sans', verdana, arial, sans-serif; font-size: 12px; fill: rgb(42, 63, 95); fill-opacity: 1; white-space: pre;">0</text></g><g class="y3tick"><text text-anchor="end" x="79" y="4.199999999999999" transform="translate(0,592.53)" style="font-family: 'Open Sans', verdana, arial, sans-serif; font-size: 12px; fill: rgb(42, 63, 95); fill-opacity: 1; white-space: pre;">2</text></g><g class="y3tick"><text text-anchor="end" x="79" y="4.199999999999999" transform="translate(0,559.68)" style="font-family: 'Open Sans', verdana, arial, sans-serif; font-size: 12px; fill: rgb(42, 63, 95); fill-opacity: 1; white-space: pre;">4</text></g></g><g class="overaxes-above"/></g><g class="subplot x4y4"><g class="layer-subplot"><g class="shapelayer"/><g class="imagelayer"/></g><g class="gridlayer"><g class="x4"><path class="x4grid crisp" transform="translate(205.70999999999998,0)" d="M0,745.75v174.25" style="stroke: rgb(255, 255, 255); stroke-opacity: 1; stroke-width: 1px;"/><path class="x4grid crisp" transform="translate(331.43,0)" d="M0,745.75v174.25" style="stroke: rgb(255, 255, 255); stroke-opacity: 1; stroke-width: 1px;"/><path class="x4grid crisp" transform="translate(457.14,0)" d="M0,745.75v174.25" style="stroke: rgb(255, 255, 255); stroke-opacity: 1; stroke-width: 1px;"/></g><g class="y4"><path class="y4grid crisp" transform="translate(0,840.21)" d="M80,0h440" style="stroke: rgb(255, 255, 255); stroke-opacity: 1; stroke-width: 1px;"/><path class="y4grid crisp" transform="translate(0,779.46)" d="M80,0h440" style="stroke: rgb(255, 255, 255); stroke-opacity: 1; stroke-width: 1px;"/></g></g><g class="zerolinelayer"><path class="x4zl zl crisp" transform="translate(80,0)" d="M0,745.75v174.25" style="stroke: rgb(255, 255, 255); stroke-opacity: 1; stroke-width: 2px;"/><path class="y4zl zl crisp" transform="translate(0,900.97)" d="M80,0h440" style="stroke: rgb(255, 255, 255); stroke-opacity: 1; stroke-width: 2px;"/></g><path class="xlines-below"/><path class="ylines-below"/><g class="overlines-below"/><g class="xaxislayer-below"/><g class="yaxislayer-below"/><g class="overaxes-below"/><g class="plot" transform="translate(80,745.75)" clip-path="url('#clipcb9de4x4y4plot')"><g class="scatterlayer mlayer"><g class="trace scatter traceed23a5" style="stroke-miterlimit: 2;"><g class="fills"><g><path class="js-fill" d="M440,155.22L0,155.22L0,155.22L30.95,103.39L33.17,99.89L50.85,73.48L53.07,70.42L66.33,53.28L68.54,50.65L81.81,36.39L84.02,34.28L95.08,24.89L97.29,23.26L108.34,16.38L110.55,15.26L119.4,11.66L121.61,10.98L130.45,9.16L132.66,8.92L141.51,8.85L143.72,9.04L152.56,10.62L154.77,11.22L165.83,15.31L168.04,16.34L179.1,22.5L181.31,23.92L194.57,33.55L196.78,35.33L212.26,48.83L214.47,50.88L229.95,66.15L232.16,68.52L251.43,90.53L251.43,90.53L252.06,91.28L285.23,129.87L287.44,132.22L300.7,145.05L302.91,146.94L314.29,155.22L314.29,155.22L316.18,156.34L325.03,160.57L327.24,161.4L336.08,163.86L338.29,164.29L349.35,165.46L351.56,165.52L364.82,164.97L367.04,164.76L386.93,161.8L389.15,161.41L420.1,156.44L422.31,156.2L437.79,155.24L440,155.22" style="fill: rgb(0, 0, 255); fill-opacity: 0.5; stroke-width: 0;"/></g></g><g class="errorbars"/><g class="lines"><path class="js-line" d="M0,155.22L30.95,103.39L33.17,99.89L50.85,73.48L53.07,70.42L66.33,53.28L68.54,50.65L81.81,36.39L84.02,34.28L95.08,24.89L97.29,23.26L108.34,16.38L110.55,15.26L119.4,11.66L121.61,10.98L130.45,9.16L132.66,8.92L141.51,8.85L143.72,9.04L152.56,10.62L154.77,11.22L165.83,15.31L168.04,16.34L179.1,22.5L181.31,23.92L194.57,33.55L196.78,35.33L212.26,48.83L214.47,50.88L229.95,66.15L232.16,68.52L251.43,90.53L251.43,90.53L252.06,91.28L285.23,129.87L287.44,132.22L300.7,145.05L302.91,146.94L314.29,155.22L314.29,155.22L316.18,156.34L325.03,160.57L327.24,161.4L336.08,163.86L338.29,164.29L349.35,165.46L351.56,165.52L364.82,164.97L367.04,164.76L386.93,161.8L389.15,161.41L420.1,156.44L422.31,156.2L437.79,155.24L440,155.22" style="vector-effect: non-scaling-stroke; fill: none; stroke: rgb(0, 0, 255); stroke-opacity: 1; stroke-width: 1px; opacity: 1;"/></g><g class="points"/><g class="text"/></g></g></g><g class="overplot"/><path class="xlines-above crisp" d="M0,0" style="fill: none;"/><path class="ylines-above crisp" d="M0,0" style="fill: none;"/><g class="overlines-above"/><g class="xaxislayer-above"><g class="x4tick"><text text-anchor="middle" x="0" y="933" transform="translate(80,0)" style="font-family: 'Open Sans', verdana, arial, sans-serif; font-size: 12px; fill: rgb(42, 63, 95); fill-opacity: 1; white-space: pre;">0</text></g><g class="x4tick"><text text-anchor="middle" x="0" y="933" transform="translate(205.70999999999998,0)" style="font-family: 'Open Sans', verdana, arial, sans-serif; font-size: 12px; fill: rgb(42, 63, 95); fill-opacity: 1; white-space: pre;">2</text></g><g class="x4tick"><text text-anchor="middle" x="0" y="933" transform="translate(331.43,0)" style="font-family: 'Open Sans', verdana, arial, sans-serif; font-size: 12px; fill: rgb(42, 63, 95); fill-opacity: 1; white-space: pre;">4</text></g><g class="x4tick"><text text-anchor="middle" x="0" y="933" transform="translate(457.14,0)" style="font-family: 'Open Sans', verdana, arial, sans-serif; font-size: 12px; fill: rgb(42, 63, 95); fill-opacity: 1; white-space: pre;">6</text></g></g><g class="yaxislayer-above"><g class="y4tick"><text text-anchor="end" x="79" y="4.199999999999999" transform="translate(0,900.97)" style="font-family: 'Open Sans', verdana, arial, sans-serif; font-size: 12px; fill: rgb(42, 63, 95); fill-opacity: 1; white-space: pre;">0</text></g><g class="y4tick"><text text-anchor="end" x="79" y="4.199999999999999" transform="translate(0,840.21)" style="font-family: 'Open Sans', verdana, arial, sans-serif; font-size: 12px; fill: rgb(42, 63, 95); fill-opacity: 1; white-space: pre;">2</text></g><g class="y4tick"><text text-anchor="end" x="79" y="4.199999999999999" transform="translate(0,779.46)" style="font-family: 'Open Sans', verdana, arial, sans-serif; font-size: 12px; fill: rgb(42, 63, 95); fill-opacity: 1; white-space: pre;">4</text></g></g><g class="overaxes-above"/></g></g><g class="polarlayer"/><g class="ternarylayer"/><g class="geolayer"/><g class="funnelarealayer"/><g class="pielayer"/><g class="treemaplayer"/><g class="sunburstlayer"/><g class="glimages"/><defs id="topdefs-cb9de4"><g class="clips"/></defs><g class="layer-above"><g class="imagelayer"/><g class="shapelayer"/></g><g class="infolayer"><g class="g-gtitle"><text class="gtitle" x="300" y="50" text-anchor="middle" dy="0em" style="font-family: 'Open Sans', verdana, arial, sans-serif; font-size: 24px; fill: rgb(42, 63, 95); opacity: 1; font-weight: normal; white-space: pre;">Analysis Results</text></g><g class="g-xtitle"/><g class="g-x2title"/><g class="g-x3title"/><g class="g-x4title"><text class="x4title" x="300" y="961.8" text-anchor="middle" style="font-family: 'Open Sans', verdana, arial, sans-serif; font-size: 14px; fill: rgb(42, 63, 95); opacity: 1; font-weight: normal; white-space: pre;">Beam Length (m)</text></g><g class="g-ytitle"><text class="ytitle" transform="rotate(-90,30.418750000000003,187.125)" x="30.418750000000003" y="187.125" text-anchor="middle" style="font-family: 'Open Sans', verdana, arial, sans-serif; font-size: 14px; fill: rgb(42, 63, 95); opacity: 1; font-weight: normal; white-space: pre;">Normal Force (kN)</text></g><g class="g-y2title"><text class="y2title" transform="rotate(-90,40.465625,402.375)" x="40.465625" y="402.375" text-anchor="middle" style="font-family: 'Open Sans', verdana, arial, sans-serif; font-size: 14px; fill: rgb(42, 63, 95); opacity: 1; font-weight: normal; white-space: pre;">Shear Force (kN)</text></g><g class="g-y3title"><text class="y3title" transform="rotate(-90,40.465625,617.625)" x="40.465625" y="617.625" text-anchor="middle" style="font-family: 'Open Sans', verdana, arial, sans-serif; font-size: 14px; fill: rgb(42, 63, 95); opacity: 1; font-weight: normal; white-space: pre;">Bending Moment (kN.m)</text></g><g class="g-y4title"><text class="y4title" transform="rotate(-90,47.325,832.875)" x="47.325" y="832.875" text-anchor="middle" style="font-family: 'Open Sans', verdana, arial, sans-serif; font-size: 14px; fill: rgb(42, 63, 95); opacity: 1; font-weight: normal; white-space: pre;">Deflection (mm)</text></g><g class="annotation" data-index="0" style="opacity: 1;"><g class="annotation-text-g" transform="rotate(0,300,87)"><g class="cursor-pointer" transform="translate(214,74)"><rect class="bg" x="0.5" y="0.5" width="172" height="25" style="stroke-width: 1px; stroke: rgb(0, 0, 0); stroke-opacity: 0; fill: rgb(0, 0, 0); fill-opacity: 0;"/><text class="annotation-text" text-anchor="middle" x="86.578125" y="19" style="font-family: 'Open Sans', verdana, arial, sans-serif; font-size: 16px; fill: rgb(42, 63, 95); fill-opacity: 1; white-space: pre;">Normal Force Diagram</text></g></g></g><g class="annotation" data-index="1" style="opacity: 1;"><g class="annotation-text-g" transform="rotate(0,300,302.25)"><g class="cursor-pointer" transform="translate(220,289)"><rect class="bg" x="0.5" y="0.5" width="159" height="25" style="stroke-width: 1px; stroke: rgb(0, 0, 0); stroke-opacity: 0; fill: rgb(0, 0, 0); fill-opacity: 0;"/><text class="annotation-text" text-anchor="middle" x="80.03125" y="19" style="font-family: 'Open Sans', verdana, arial, sans-serif; font-size: 16px; fill: rgb(42, 63, 95); fill-opacity: 1; white-space: pre;">Shear Force Diagram</text></g></g></g><g class="annotation" data-index="2" style="opacity: 1;"><g class="annotation-text-g" transform="rotate(0,300,517.5)"><g class="cursor-pointer" transform="translate(200,505)"><rect class="bg" x="0.5" y="0.5" width="200" height="25" style="stroke-width: 1px; stroke: rgb(0, 0, 0); stroke-opacity: 0; fill: rgb(0, 0, 0); fill-opacity: 0;"/><text class="annotation-text" text-anchor="middle" x="100.53125" y="19" style="font-family: 'Open Sans', verdana, arial, sans-serif; font-size: 16px; fill: rgb(42, 63, 95); fill-opacity: 1; white-space: pre;">Bending Moment Diagram</text></g></g></g><g class="annotation" data-index="3" style="opacity: 1;"><g class="annotation-text-g" transform="rotate(0,300,732.75)"><g class="cursor-pointer" transform="translate(226,720)"><rect class="bg" x="0.5" y="0.5" width="147" height="25" style="stroke-width: 1px; stroke: rgb(0, 0, 0); stroke-opacity: 0; fill: rgb(0, 0, 0); fill-opacity: 0;"/><text class="annotation-text" text-anchor="middle" x="73.875" y="19" style="font-family: 'Open Sans', verdana, arial, sans-serif; font-size: 16px; fill: rgb(42, 63, 95); fill-opacity: 1; white-space: pre;">Deflection Diagram</text></g></g></g></g></svg>